#!OML:ASF F:\VICON\USERDATA\INSTALL\rory3\rory3.ASF
:FULLY-SPECIFIED
:DEGREES
2452
root 0.380618 16.4006 -0.4976 17.8156 0.0313367 0.415278
lowerback 20.8566 0.117508 -0.185767
upperback -1.47516 -0.13632 -1.8217
thorax -13.4541 -0.137509 -1.9057
lowerneck -1.43866 -8.23681 -13.2436
upperneck -5.67944 -10.5046 20.5118
head 0.507804 -5.32383 8.23045
rclavicle 4.57205e-015 -4.37326e-015
rhumerus 39.6099 -33.1038 1.64563
rradius 107.146
rwrist -41.0886
rhand -6.03128 18.5592
rfingers 7.12502
rthumb 19.8023 -10.452
lclavicle 4.57205e-015 -4.37326e-015
lhumerus -48.4795 21.5963 53.6109
lradius 17.8313
lwrist -4.98309
lhand -10.3911 13.0424
lfingers 7.12502
lthumb 15.607 42.4328
rfemur -21.035 13.9937 11.1615
rtibia 12.8159
rfoot -8.93373 -19.2828
rtoes 1.74492
lfemur -14.4445 -5.59225 -15.4991
ltibia -3.18055e-014
lfoot -0.81615 6.30064
ltoes -5.3274
2453
root 0.381065 16.3945 -0.499888 17.8626 0.0261838 0.48166
lowerback 20.8579 0.11246 -0.241723
upperback -1.43076 -0.160394 -1.85172
thorax -13.4038 -0.145347 -1.89908
lowerneck -1.22236 -8.2028 -13.3239
upperneck -6.03682 -10.4311 20.7237
head 0.377308 -5.30955 8.337
rclavicle 2.78299e-015 1.98785e-015
rhumerus 39.5361 -33.149 1.71481
rradius 107.113
rwrist -40.9296
rhand -6.08623 18.3512
rfingers 7.12502
rthumb 19.7495 -10.6655
lclavicle 2.78299e-015 1.98785e-015
lhumerus -48.4439 21.5619 53.6537
lradius 17.9157
lwrist -4.83061
lhand -10.3809 13.0393
lfingers 7.12502
lthumb 15.6168 42.4289
rfemur -21.1216 13.9331 11.0881
rtibia 12.7802
rfoot -8.62673 -19.3437
rtoes 0.0996935
lfemur -14.5083 -5.58369 -15.5664
ltibia 2.3059e-014
lfoot -0.818901 6.26221
ltoes -5.89539
2454
root 0.381055 16.3921 -0.503182 17.9297 0.00546842 0.520145
lowerback 20.8908 0.129733 -0.29729
upperback -1.41742 -0.152082 -1.85414
thorax -13.407 -0.137586 -1.87281
lowerneck -0.944268 -8.17054 -13.4299
upperneck -6.41995 -10.3623 20.9118
head 0.229487 -5.30074 8.44405
rclavicle -1.98785e-016 -6.36111e-015
rhumerus 39.5432 -33.225 1.743
rradius 107.086
rwrist -40.8508
rhand -6.02535 18.4379
rfingers 7.12502
rthumb 19.808 -10.5727
lclavicle -1.98785e-016 -6.36111e-015
lhumerus -48.416 21.5931 53.6669
lradius 17.9205
lwrist -4.77897
lhand -10.4128 13.0528
lfingers 7.12502
lthumb 15.5861 42.4448
rfemur -21.2143 13.9425 11.0138
rtibia 12.7987
rfoot -8.66134 -19.3493
rtoes -0.107998
lfemur -14.596 -5.54984 -15.6083
ltibia -3.18055e-015
lfoot -0.802592 6.26169
ltoes -5.66705
2455
root 0.381598 16.395 -0.505655 17.9665 -0.0303639 0.539432
lowerback 20.9548 0.156186 -0.35095
upperback -1.4081 -0.131021 -1.8514
thorax -13.4325 -0.124057 -1.84639
lowerneck -1.09601 -8.20966 -13.3098
upperneck -6.34174 -10.4129 20.7472
head 0.267623 -5.31587 8.35769
rclavicle -2.38542e-015 1.35174e-014
rhumerus 39.5407 -33.2786 1.74615
rradius 107.058
rwrist -40.6645
rhand -6.18776 18.7003
rfingers 7.12502
rthumb 19.6519 -10.3264
lclavicle -2.38542e-015 1.35174e-014
lhumerus -48.4205 21.6298 53.6416
lradius 17.8895
lwrist -4.85601
lhand -10.467 13.0592
lfingers 7.12502
lthumb 15.5339 42.4553
rfemur -21.3571 13.9984 10.9606
rtibia 12.9231
rfoot -8.54116 -19.422
rtoes -0.388094
lfemur -14.6399 -5.49753 -15.6376
ltibia 4.77083e-015
lfoot -0.764746 6.21319
ltoes -5.16177
2456
root 0.384024 16.4014 -0.507246 18.0106 -0.063312 0.584247
lowerback 20.9626 0.173245 -0.382627
upperback -1.37139 -0.120449 -1.88552
thorax -13.3941 -0.118182 -1.8696
lowerneck -1.40372 -8.25988 -13.0711
upperneck -6.13572 -10.4809 20.532
head 0.360842 -5.33017 8.22335
rclavicle 4.37326e-015 -5.96354e-015
rhumerus 39.4965 -33.3545 1.76934
rradius 107.01
rwrist -40.5077
rhand -6.34335 18.6597
rfingers 7.12502
rthumb 19.5023 -10.3822
lclavicle 4.37326e-015 -5.96354e-015
lhumerus -48.3544 21.521 53.7149
lradius 17.8912
lwrist -4.78221
lhand -10.5213 13.0099
lfingers 7.12502
lthumb 15.4816 42.4101
rfemur -21.4579 14.041 10.8554
rtibia 13.0889
rfoot -8.96896 -19.3321
rtoes 1.84447
lfemur -14.6911 -5.4596 -15.7042
ltibia 1.35174e-014
lfoot -0.78214 6.19016
ltoes -5.01363
2457
root 0.387056 16.4054 -0.509424 18.0917 -0.0550805 0.598704
lowerback 20.911 0.159398 -0.361477
upperback -1.31207 -0.132302 -1.89163
thorax -13.2955 -0.124529 -1.88298
lowerneck -1.54316 -8.24939 -12.9899
upperneck -6.17755 -10.4484 20.4796
head 0.358894 -5.30909 8.18974
rclavicle 1.59028e-015 7.95139e-016
rhumerus 39.5739 -33.5446 1.69754
rradius 107.051
rwrist -40.5104
rhand -6.3758 18.6044
rfingers 7.12502
rthumb 19.4711 -10.4407
lclavicle 1.59028e-015 7.95139e-016
lhumerus -48.2931 21.6423 53.6861
lradius 17.8756
lwrist -4.88746
lhand -10.5797 12.8502
lfingers 7.12502
lthumb 15.4253 42.2547
rfemur -21.5681 14.0869 10.7788
rtibia 13.2286
rfoot -9.42776 -19.2672
rtoes 3.7145
lfemur -14.7977 -5.44761 -15.722
ltibia -4.77083e-014
lfoot -0.76146 6.17411
ltoes -4.67025
